<?xml version="1.0" encoding="UTF-8"?>
<svg id="Layer_1" xmlns="http://www.w3.org/2000/svg" version="1.1" viewBox="0 0 200 100">
  <!-- Generator: Adobe Illustrator 30.8.2, SVG Export Plug-In . SVG Version: 2.1.4 Build 7)  -->
  <defs>
    <style>
      .st0 {
        fill: #e43583;
      }

      .st1 {
        stroke: #fbb040;
      }

      .st1, .st2, .st3, .st4, .st5, .st6 {
        fill: none;
        opacity: .4;
        stroke-linejoin: round;
        stroke-width: .5px;
      }

      .st2 {
        stroke: #00aeef;
      }

      .st3 {
        stroke: #be1e2d;
      }

      .st4 {
        stroke: #39b54a;
      }

      .st5 {
        stroke: #f15a29;
      }

      .st6 {
        stroke: #2b3990;
      }
    </style>
  </defs>
  <g>
    <path class="st2" d="M62.72,62.76c.25-.43,1.88-3.45,1.06-7.06-.71-3.16-3.05-5.9-6.94-8.14-8.58-4.95-23.46-3.46-26.05-3.16,1.03,2.39,7.18,16.03,15.76,20.98,3.89,2.25,7.44,2.9,10.53,1.94,3.81-1.19,5.59-4.46,5.6-4.49h0s.01-.03.03-.06Z"/>
    <path class="st2" d="M64.05,63.53c.26-.44,1.92-3.51,1.1-7.22-.73-3.31-3.18-6.18-7.27-8.55-8.91-5.15-24.31-3.68-27.09-3.36,1.12,2.57,7.55,16.64,16.46,21.78,4.09,2.36,7.81,3.04,11.04,2.02,3.89-1.23,5.71-4.57,5.73-4.6h0s.01-.03.03-.07Z"/>
    <path class="st2" d="M65.39,64.29c.26-.45,1.95-3.58,1.13-7.38-.75-3.46-3.3-6.47-7.59-8.95-9.24-5.34-25.16-3.89-28.14-3.57,1.21,2.74,7.92,17.25,17.16,22.59,4.29,2.48,8.18,3.19,11.55,2.1,3.98-1.28,5.83-4.68,5.85-4.72h0s.01-.04.03-.07Z"/>
    <path class="st2" d="M66.72,65.06c.27-.46,1.99-3.65,1.17-7.55-.76-3.61-3.43-6.76-7.92-9.35-9.57-5.53-26.01-4.11-29.18-3.77,1.3,2.92,8.29,17.86,17.86,23.39,4.49,2.59,8.55,3.33,12.06,2.18,4.07-1.33,5.95-4.79,5.97-4.83h0s.01-.04.03-.07Z"/>
    <path class="st2" d="M68.06,65.83c.27-.47,2.03-3.72,1.21-7.71-.78-3.76-3.55-7.04-8.24-9.75-9.9-5.72-26.85-4.32-30.23-3.98,1.39,3.1,8.66,18.47,18.56,24.19,4.69,2.71,8.92,3.47,12.57,2.26,4.15-1.38,6.08-4.91,6.1-4.94v-.02s.02-.02.04-.06Z"/>
    <path class="st2" d="M69.39,66.6c.28-.48,2.07-3.79,1.24-7.87-.79-3.91-3.68-7.33-8.57-10.15-10.23-5.91-27.7-4.54-31.27-4.18,1.48,3.27,9.03,19.08,19.26,24.99,4.89,2.82,9.29,3.61,13.08,2.34,4.24-1.42,6.2-5.02,6.22-5.05v-.02s.02-.02.05-.06Z"/>
    <path class="st3" d="M39.13,22.12c-.5,0-3.92.1-6.65,2.61-2.38,2.2-3.58,5.59-3.58,10.08,0,9.91,8.73,22.05,10.29,24.14,1.56-2.09,10.29-14.23,10.29-24.14,0-4.5-1.21-7.89-3.59-10.09-2.93-2.71-6.65-2.61-6.69-2.61h-.01s-.02,0-.06,0Z"/>
    <path class="st3" d="M39.13,20.58c-.51,0-4,.1-6.8,2.66-2.5,2.29-3.77,5.84-3.77,10.56,0,10.29,8.97,22.89,10.64,25.15,1.67-2.25,10.64-14.86,10.64-25.15,0-4.73-1.27-8.28-3.77-10.57-3.02-2.76-6.81-2.66-6.85-2.66h-.01s-.03,0-.06,0Z"/>
    <path class="st3" d="M39.13,19.04c-.52,0-4.08.1-6.96,2.71-2.62,2.38-3.95,6.09-3.95,11.05,0,10.67,9.21,23.73,10.98,26.15,1.77-2.42,10.98-15.48,10.98-26.15,0-4.96-1.33-8.68-3.96-11.05-3.1-2.81-6.97-2.71-7.01-2.71h-.02s-.03,0-.07,0Z"/>
    <path class="st3" d="M39.13,17.5c-.54,0-4.16.1-7.12,2.76-2.75,2.46-4.14,6.34-4.14,11.53,0,11.05,9.45,24.58,11.33,27.16,1.88-2.58,11.33-16.11,11.33-27.16,0-5.19-1.39-9.07-4.14-11.53-3.18-2.86-7.13-2.76-7.17-2.76h-.02s-.03,0-.07,0Z"/>
    <path class="st3" d="M39.12,15.96c-.55,0-4.24.1-7.28,2.81-2.87,2.55-4.32,6.6-4.32,12.01,0,11.44,9.68,25.42,11.67,28.17,1.99-2.75,11.67-16.73,11.67-28.17,0-5.42-1.46-9.46-4.33-12.02-3.27-2.91-7.29-2.81-7.33-2.81h-.02s-.03,0-.07,0Z"/>
    <path class="st3" d="M39.12,14.42c-.56,0-4.32.11-7.43,2.86-2.99,2.64-4.51,6.85-4.51,12.5,0,11.82,9.92,26.26,12.02,29.18,2.09-2.91,12.02-17.36,12.02-29.18,0-5.65-1.52-9.85-4.51-12.5-3.35-2.96-7.45-2.86-7.49-2.86h-.02s-.03,0-.07,0Z"/>
    <path class="st1" d="M9,31.89c-.28.48-2.07,3.79-1.24,7.87.79,3.91,3.68,7.33,8.57,10.15,10.23,5.91,27.7,4.54,31.27,4.18-1.48-3.27-9.03-19.08-19.26-24.99-4.89-2.82-9.29-3.61-13.08-2.34-4.24,1.42-6.2,5.02-6.22,5.05v.02s-.02.02-.05.06Z"/>
    <path class="st6" d="M39.26,76.38c.5,0,3.92-.1,6.65-2.61,2.38-2.2,3.58-5.59,3.58-10.08,0-9.91-8.73-22.05-10.29-24.14-1.56,2.09-10.29,14.23-10.29,24.14,0,4.5,1.21,7.89,3.59,10.09,2.93,2.71,6.65,2.61,6.69,2.61h.01s.02,0,.06,0Z"/>
    <path class="st6" d="M39.26,77.92c.51,0,4-.1,6.8-2.66,2.5-2.29,3.77-5.84,3.77-10.56,0-10.29-8.97-22.89-10.64-25.15-1.67,2.25-10.64,14.86-10.64,25.15,0,4.73,1.27,8.28,3.77,10.57,3.02,2.76,6.81,2.66,6.85,2.66h.01s.03,0,.06,0Z"/>
    <path class="st6" d="M39.26,79.46c.52,0,4.08-.1,6.96-2.71,2.62-2.38,3.95-6.09,3.95-11.05,0-10.67-9.21-23.73-10.98-26.15-1.77,2.42-10.98,15.48-10.98,26.15,0,4.96,1.33,8.68,3.96,11.05,3.1,2.81,6.97,2.71,7.01,2.71h.02s.03,0,.07,0Z"/>
    <path class="st6" d="M39.26,80.99c.54,0,4.16-.1,7.12-2.76,2.75-2.46,4.14-6.34,4.14-11.53,0-11.05-9.45-24.58-11.33-27.16-1.88,2.58-11.33,16.11-11.33,27.16,0,5.19,1.39,9.07,4.14,11.53,3.18,2.86,7.13,2.76,7.17,2.76h.02s.03,0,.07,0Z"/>
    <path class="st6" d="M39.26,82.53c.55,0,4.24-.1,7.28-2.81,2.87-2.55,4.32-6.6,4.32-12.01,0-11.44-9.68-25.42-11.67-28.17-1.99,2.75-11.67,16.73-11.67,28.17,0,5.42,1.46,9.46,4.33,12.02,3.27,2.91,7.29,2.81,7.33,2.81h.02s.03,0,.07,0Z"/>
    <path class="st6" d="M39.26,84.07c.56,0,4.32-.11,7.43-2.86,2.99-2.64,4.51-6.85,4.51-12.5,0-11.82-9.92-26.26-12.02-29.18-2.09,2.91-12.02,17.36-12.02,29.18,0,5.65,1.52,9.85,4.51,12.5,3.35,2.96,7.45,2.86,7.49,2.86h.02s.03,0,.07,0Z"/>
    <path class="st4" d="M15.73,62.87c.25.43,2.04,3.35,5.59,4.45,3.09.96,6.63.31,10.52-1.94,8.58-4.95,14.73-18.59,15.76-20.98-2.59-.31-17.47-1.8-26.05,3.16-3.89,2.25-6.23,4.99-6.94,8.15-.88,3.89,1.07,7.07,1.09,7.1h0s.01.03.03.06Z"/>
    <path class="st4" d="M14.4,63.64c.26.44,2.09,3.42,5.71,4.56,3.23,1.02,6.94.34,11.03-2.02,8.91-5.15,15.34-19.21,16.46-21.78-2.78-.32-18.18-1.78-27.09,3.36-4.09,2.36-6.54,5.24-7.27,8.55-.88,3.99,1.1,7.23,1.12,7.26h0s.01.03.03.07Z"/>
    <path class="st4" d="M13.06,64.41c.26.45,2.13,3.48,5.83,4.67,3.37,1.08,7.25.38,11.54-2.1,9.24-5.34,15.95-19.84,17.16-22.59-2.98-.33-18.9-1.77-28.14,3.57-4.29,2.48-6.85,5.49-7.59,8.95-.88,4.09,1.14,7.39,1.16,7.42h0s.01.04.03.07Z"/>
    <path class="st4" d="M11.73,65.18c.27.46,2.17,3.55,5.95,4.78,3.51,1.15,7.56.41,12.06-2.18,9.57-5.53,16.56-20.47,17.86-23.39-3.18-.34-19.61-1.75-29.18,3.77-4.49,2.59-7.16,5.74-7.92,9.35-.88,4.19,1.17,7.55,1.2,7.59h0s.01.04.03.07Z"/>
    <path class="st4" d="M10.4,65.95c.27.47,2.21,3.62,6.07,4.9,3.65,1.21,7.87.45,12.57-2.26,9.9-5.72,17.17-21.1,18.56-24.19-3.37-.35-20.33-1.74-30.23,3.98-4.69,2.71-7.47,5.99-8.24,9.75-.89,4.29,1.21,7.72,1.23,7.75v.02s.02.02.04.06Z"/>
    <path class="st4" d="M9.07,66.72c.28.48,2.25,3.69,6.19,5.01,3.78,1.27,8.18.48,13.08-2.34,10.23-5.91,17.78-21.72,19.26-24.99-3.57-.36-21.04-1.73-31.27,4.18-4.89,2.82-7.78,6.24-8.57,10.15-.89,4.38,1.25,7.88,1.27,7.91v.02s.02.02.04.06Z"/>
    <path class="st5" d="M62.66,35.63c-.25-.43-2.04-3.35-5.59-4.45-3.09-.96-6.63-.31-10.52,1.94-8.58,4.95-14.73,18.59-15.76,20.98,2.59.31,17.47,1.8,26.05-3.16,3.89-2.25,6.23-4.99,6.94-8.15.88-3.89-1.07-7.07-1.09-7.1h0s-.01-.03-.03-.06Z"/>
    <path class="st5" d="M63.99,34.86c-.26-.44-2.09-3.42-5.71-4.56-3.23-1.02-6.94-.34-11.03,2.02-8.91,5.15-15.34,19.21-16.46,21.78,2.78.32,18.18,1.78,27.09-3.36,4.09-2.36,6.54-5.24,7.27-8.55.88-3.99-1.1-7.23-1.12-7.26h0s-.01-.03-.03-.07Z"/>
    <path class="st5" d="M65.32,34.08c-.26-.45-2.13-3.48-5.83-4.67-3.37-1.08-7.25-.38-11.54,2.1-9.24,5.34-15.95,19.84-17.16,22.59,2.98.33,18.9,1.77,28.14-3.57,4.29-2.48,6.85-5.49,7.59-8.95.88-4.09-1.14-7.39-1.16-7.42h0s-.01-.04-.03-.07Z"/>
    <path class="st5" d="M66.65,33.31c-.27-.46-2.17-3.55-5.95-4.78-3.51-1.15-7.56-.41-12.06,2.18-9.57,5.53-16.56,20.47-17.86,23.39,3.18.34,19.61,1.75,29.18-3.77,4.49-2.59,7.16-5.74,7.92-9.35.88-4.19-1.17-7.55-1.2-7.59h0s-.01-.04-.03-.07Z"/>
    <path class="st5" d="M67.99,32.54c-.27-.47-2.21-3.62-6.07-4.9-3.65-1.21-7.87-.45-12.57,2.26-9.9,5.72-17.17,21.1-18.56,24.19,3.37.35,20.33,1.74,30.23-3.98,4.69-2.71,7.47-5.99,8.24-9.75.89-4.29-1.21-7.72-1.23-7.75v-.02s-.02-.02-.04-.06Z"/>
    <path class="st5" d="M69.32,31.77c-.28-.48-2.25-3.69-6.19-5.01-3.78-1.27-8.18-.48-13.08,2.34-10.23,5.91-17.78,21.72-19.26,24.99,3.57.36,21.04,1.73,31.27-4.18,4.89-2.82,7.78-6.24,8.57-10.15.89-4.38-1.25-7.88-1.27-7.91v-.02s-.02-.02-.04-.06Z"/>
    <path class="st1" d="M15.67,35.74c-.25.43-1.88,3.45-1.06,7.06.71,3.16,3.05,5.9,6.94,8.14,8.58,4.95,23.46,3.46,26.05,3.16-1.03-2.39-7.18-16.03-15.76-20.98-3.89-2.25-7.44-2.9-10.53-1.94-3.81,1.19-5.59,4.46-5.6,4.49h0s-.01.03-.03.06Z"/>
    <path class="st1" d="M14.33,34.97c-.26.44-1.92,3.51-1.1,7.22.73,3.31,3.18,6.18,7.27,8.55,8.91,5.15,24.31,3.68,27.09,3.36-1.12-2.57-7.55-16.64-16.46-21.78-4.09-2.36-7.81-3.04-11.04-2.02-3.89,1.23-5.71,4.57-5.73,4.6h0s-.01.03-.03.07Z"/>
    <path class="st1" d="M13,34.2c-.26.45-1.95,3.58-1.13,7.38.75,3.46,3.3,6.47,7.59,8.95,9.24,5.34,25.16,3.89,28.14,3.57-1.21-2.74-7.92-17.25-17.16-22.59-4.29-2.48-8.18-3.19-11.55-2.1-3.98,1.28-5.83,4.68-5.85,4.72h0s-.01.04-.03.07Z"/>
    <path class="st1" d="M11.66,33.43c-.27.46-1.99,3.65-1.17,7.55.76,3.61,3.43,6.76,7.92,9.35,9.57,5.53,26.01,4.11,29.18,3.77-1.3-2.92-8.29-17.86-17.86-23.39-4.49-2.59-8.55-3.33-12.06-2.18-4.07,1.33-5.95,4.79-5.97,4.83h0s-.01.04-.03.07Z"/>
    <path class="st1" d="M10.33,32.66c-.27.47-2.03,3.72-1.21,7.71.78,3.76,3.55,7.04,8.24,9.75,9.9,5.72,26.85,4.32,30.23,3.98-1.39-3.1-8.66-18.47-18.56-24.19-4.69-2.71-8.92-3.47-12.57-2.26-4.15,1.38-6.08,4.91-6.1,4.94v.02s-.02.02-.04.06Z"/>
  </g>
  <g>
    <g>
      <path class="st0" d="M87.86,68.31v-7.33h1.36v7.33h-1.36ZM89.11,65.17v-1.16h4.01v1.16h-4.01ZM93.01,68.31v-7.33h1.36v7.33h-1.36Z"/>
      <path class="st0" d="M97.9,68.39c-.42,0-.79-.07-1.1-.21-.31-.14-.56-.34-.73-.6-.17-.25-.26-.54-.26-.86s.07-.6.22-.85c.15-.25.4-.45.74-.6.34-.15.8-.22,1.36-.22h1.62v.87h-1.53c-.45,0-.75.07-.9.21-.15.14-.23.32-.23.53,0,.24.09.43.28.57s.45.21.79.21.61-.07.86-.22c.25-.15.44-.36.55-.65l.22.78c-.13.33-.35.58-.68.76-.32.18-.73.27-1.23.27ZM99.66,68.31v-1.13l-.07-.24v-1.98c0-.38-.12-.68-.35-.89s-.58-.32-1.05-.32c-.31,0-.62.05-.93.15-.3.1-.56.23-.77.41l-.51-.95c.3-.23.66-.4,1.07-.52.41-.12.85-.17,1.29-.17.81,0,1.44.19,1.88.58.44.39.66.99.66,1.8v3.28h-1.24ZM98.4,70.48c-.22,0-.39-.07-.53-.21s-.21-.32-.21-.53.07-.39.21-.53c.14-.14.32-.21.53-.21s.39.07.53.21c.14.14.21.32.21.53s-.07.39-.21.53c-.14.14-.32.21-.53.21Z"/>
      <path class="st0" d="M102.57,68.31v-5.59h1.25v1.51l-.22-.46c.2-.36.48-.63.85-.82.37-.19.8-.29,1.29-.29.45,0,.85.09,1.2.26.35.17.63.44.83.8.2.36.3.82.3,1.39v3.2h-1.31v-3.04c0-.5-.12-.87-.35-1.11-.23-.24-.56-.37-.98-.37-.31,0-.58.06-.82.19s-.42.31-.55.56c-.13.25-.19.56-.19.94v2.83h-1.31Z"/>
      <path class="st0" d="M109.74,68.31v-7.77h1.31v3.68l-.28-.46c.2-.36.48-.63.85-.82.37-.19.8-.29,1.29-.29.45,0,.85.09,1.2.26.35.17.63.44.83.8.2.36.3.82.3,1.39v3.2h-1.31v-3.04c0-.5-.12-.87-.35-1.11-.23-.24-.56-.37-.98-.37-.31,0-.58.06-.82.19s-.42.31-.55.56c-.13.25-.19.56-.19.94v2.83h-1.31Z"/>
      <path class="st0" d="M119.79,70.34v-7.62h1.25v1.32l-.04,1.49.1,1.49v3.33h-1.31ZM122.89,68.39c-.45,0-.87-.1-1.24-.31s-.67-.52-.89-.95c-.22-.42-.33-.96-.33-1.61s.11-1.19.32-1.61c.21-.42.5-.73.87-.94.37-.21.79-.31,1.27-.31.55,0,1.04.12,1.46.36.42.24.76.57,1,.99.25.43.37.93.37,1.51s-.12,1.08-.37,1.51-.58.76-1,1c-.42.24-.91.36-1.46.36ZM122.75,67.27c.31,0,.59-.07.84-.21s.44-.34.59-.61c.15-.27.22-.58.22-.93s-.07-.68-.22-.94c-.15-.26-.34-.46-.59-.6-.25-.14-.53-.21-.84-.21s-.6.07-.85.21c-.25.14-.45.34-.6.6-.15.26-.22.57-.22.94s.07.67.22.93c.15.27.35.47.6.61.25.14.53.21.85.21Z"/>
      <path class="st0" d="M126.97,68.31v-7.77h1.31v3.68l-.28-.46c.2-.36.48-.63.85-.82.37-.19.8-.29,1.29-.29.45,0,.85.09,1.2.26.35.17.63.44.83.8.2.36.3.82.3,1.39v3.2h-1.31v-3.04c0-.5-.12-.87-.35-1.11-.23-.24-.56-.37-.98-.37-.31,0-.58.06-.82.19s-.42.31-.55.56c-.13.25-.19.56-.19.94v2.83h-1.31Z"/>
      <path class="st0" d="M136.51,68.39c-.47,0-.89-.09-1.26-.27s-.65-.45-.85-.82-.3-.83-.3-1.39v-3.19h1.31v3.01c0,.5.11.88.34,1.13.23.25.55.37.97.37.31,0,.57-.06.8-.19s.4-.31.53-.57c.13-.25.19-.56.19-.93v-2.83h1.31v5.59h-1.25v-1.51l.22.46c-.19.36-.46.64-.83.83-.36.19-.76.29-1.19.29ZM135.95,61.96l1.41-1.43h1.54l-1.82,1.43h-1.13Z"/>
      <path class="st0" d="M143.84,68.39c-.59,0-1.11-.12-1.56-.37-.46-.25-.81-.59-1.07-1.02-.26-.43-.39-.92-.39-1.48s.13-1.05.39-1.48c.26-.43.62-.77,1.07-1.01.46-.24.98-.37,1.56-.37.54,0,1.02.11,1.44.33s.73.54.95.97l-1,.59c-.17-.27-.37-.46-.61-.59s-.5-.19-.78-.19c-.32,0-.61.07-.87.21-.26.14-.46.34-.61.6-.15.26-.22.57-.22.94s.07.68.22.94c.15.26.35.46.61.6.26.14.55.21.87.21.28,0,.54-.06.78-.19s.45-.32.61-.59l1,.59c-.22.42-.53.74-.95.97s-.89.34-1.44.34Z"/>
      <path class="st0" d="M151.73,68.31l-2.4-5.59h1.36l2.06,4.93h-.67l2.14-4.93h1.26l-2.4,5.59h-1.35Z"/>
      <path class="st0" d="M158.76,68.39c-.62,0-1.16-.12-1.63-.37-.46-.25-.82-.59-1.08-1.02-.25-.43-.38-.92-.38-1.48s.12-1.05.37-1.48c.25-.43.59-.77,1.03-1.01.44-.24.93-.37,1.49-.37s1.03.12,1.46.36c.43.24.76.57,1,1,.24.43.37.94.37,1.53,0,.06,0,.12,0,.19,0,.07,0,.14-.02.2h-4.66v-.87h3.97l-.51.27c0-.32-.06-.6-.2-.85-.14-.24-.33-.44-.57-.58-.24-.14-.52-.21-.83-.21s-.6.07-.84.21c-.24.14-.43.33-.57.58-.14.25-.2.54-.2.87v.21c0,.33.08.63.23.89s.37.46.65.6c.28.14.6.21.96.21.31,0,.6-.05.85-.15s.47-.25.67-.46l.7.81c-.25.29-.57.52-.95.68-.38.16-.81.24-1.3.24ZM158.53,70.48c-.22,0-.39-.07-.53-.21s-.21-.32-.21-.53.07-.39.21-.53c.14-.14.32-.21.53-.21s.39.07.53.21c.14.14.21.32.21.53s-.07.39-.21.53c-.14.14-.32.21-.53.21Z"/>
      <path class="st0" d="M162.65,68.31v-5.59h1.25v1.51l-.22-.46c.2-.36.48-.63.85-.82.37-.19.8-.29,1.29-.29.45,0,.85.09,1.2.26.35.17.63.44.83.8.2.36.3.82.3,1.39v3.2h-1.31v-3.04c0-.5-.12-.87-.35-1.11-.23-.24-.56-.37-.98-.37-.31,0-.58.06-.82.19s-.42.31-.55.56c-.13.25-.19.56-.19.94v2.83h-1.31Z"/>
      <path class="st0" d="M171.96,63.77v-1.05h3.73v1.05h-3.73ZM174.81,68.39c-.61,0-1.09-.16-1.42-.48s-.5-.79-.5-1.41v-5.01h1.31v4.98c0,.27.07.47.2.62s.33.22.57.22c.29,0,.54-.08.73-.23l.37.93c-.15.13-.34.22-.57.28-.22.06-.45.09-.69.09Z"/>
      <path class="st0" d="M179.47,68.39c-.57,0-1.08-.12-1.53-.37s-.8-.59-1.06-1.02c-.26-.43-.39-.92-.39-1.48s.13-1.05.39-1.48c.26-.43.61-.77,1.06-1.01s.96-.37,1.53-.37,1.09.12,1.54.37.8.58,1.06,1c.25.43.38.92.38,1.49s-.13,1.04-.38,1.48-.61.77-1.06,1.02-.96.37-1.54.37ZM179.47,67.27c.32,0,.61-.07.86-.21s.45-.34.59-.61c.14-.27.21-.58.21-.93s-.07-.68-.21-.94c-.14-.26-.34-.46-.59-.6-.25-.14-.53-.21-.85-.21s-.61.07-.85.21c-.25.14-.44.34-.59.6-.15.26-.22.57-.22.94s.07.67.22.93c.15.27.34.47.59.61s.53.21.84.21Z"/>
      <path class="st0" d="M185.32,68.39c-.42,0-.79-.07-1.1-.21-.31-.14-.56-.34-.73-.6-.17-.25-.26-.54-.26-.86s.07-.6.22-.85c.15-.25.4-.45.74-.6.34-.15.8-.22,1.36-.22h1.62v.87h-1.53c-.45,0-.75.07-.9.21-.15.14-.23.32-.23.53,0,.24.09.43.28.57s.45.21.79.21.61-.07.86-.22c.25-.15.44-.36.55-.65l.22.78c-.13.33-.35.58-.68.76-.32.18-.73.27-1.23.27ZM187.08,68.31v-1.13l-.07-.24v-1.98c0-.38-.12-.68-.35-.89s-.58-.32-1.05-.32c-.31,0-.62.05-.93.15-.3.1-.56.23-.77.41l-.51-.95c.3-.23.66-.4,1.07-.52.41-.12.85-.17,1.29-.17.81,0,1.44.19,1.88.58.44.39.66.99.66,1.8v3.28h-1.24ZM185.63,61.96l-1.82-1.43h1.54l1.41,1.43h-1.13Z"/>
      <path class="st0" d="M189.99,68.31v-5.59h1.25v1.51l-.22-.46c.2-.36.48-.63.85-.82.37-.19.8-.29,1.29-.29.45,0,.85.09,1.2.26.35.17.63.44.83.8.2.36.3.82.3,1.39v3.2h-1.31v-3.04c0-.5-.12-.87-.35-1.11-.23-.24-.56-.37-.98-.37-.31,0-.58.06-.82.19s-.42.31-.55.56c-.13.25-.19.56-.19.94v2.83h-1.31Z"/>
    </g>
    <g>
      <path class="st0" d="M87.86,54.65v-22.97h5.32v22.97h-5.32ZM92.78,45.23v-4.5h11.22v4.5h-11.22ZM103.61,54.65v-22.97h5.32v22.97h-5.32Z"/>
      <path class="st0" d="M114.38,54.65v-22.97h5.32v22.97h-5.32Z"/>
      <path class="st0" d="M125.14,54.65v-22.97h5.32v22.97h-5.32Z"/>
      <path class="st0" d="M135.91,54.65v-22.97h5.32v18.64h11.52v4.33h-16.84Z"/>
      <path class="st0" d="M155.73,54.65v-22.97h17.36v4.27h-12.08v14.44h12.5v4.27h-17.79ZM160.62,45.06v-4.14h11.06v4.14h-11.06Z"/>
      <path class="st0" d="M177.75,54.65v-22.97h17.36v4.27h-12.08v14.44h12.5v4.27h-17.79ZM182.64,45.06v-4.14h11.06v4.14h-11.06Z"/>
    </g>
  </g>
</svg>